<svg width="1248" height="90" viewBox="0 0 1248 90" xmlns="http://www.w3.org/2000/svg" xmlns:xlink="http://www.w3.org/1999/xlink">
  <defs>
    <path d="M35.0680904 32.5842021l5.3885496 2.1687717c-.9731205 5.6510757-3.2666898 9.2614851-6.8807078 10.8312283-2.5651168-3.8136942-2.0677308-8.1470275 1.4921582-13z" id="path-1"/>
    <filter x="-70.7%" y="-46.2%" width="241.3%" height="192.3%" filterUnits="objectBoundingBox" id="filter-2">
      <feOffset in="SourceAlpha" result="shadowOffsetOuter1"/>
      <feGaussianBlur stdDeviation="2" in="shadowOffsetOuter1" result="shadowBlurOuter1"/>
      <feColorMatrix values="0 0 0 0 1 0 0 0 0 0 0 0 0 0 0 0 0 0 1 0" in="shadowBlurOuter1"/>
    </filter>
    <path d="M78.9668452 50.5276778l5.3885496 2.1687717c-.9731205 5.6510757-3.2666898 9.2614851-6.8807079 10.8312283-2.5651168-3.8136942-2.0677307-8.1470275 1.4921583-13z" id="path-3"/>
    <filter x="-70.7%" y="-46.2%" width="241.3%" height="192.3%" filterUnits="objectBoundingBox" id="filter-4">
      <feOffset in="SourceAlpha" result="shadowOffsetOuter1"/>
      <feGaussianBlur stdDeviation="2" in="shadowOffsetOuter1" result="shadowBlurOuter1"/>
      <feColorMatrix values="0 0 0 0 0 0 0 0 0 1 0 0 0 0 0.0845788043 0 0 0 1 0" in="shadowBlurOuter1"/>
    </filter>
    <path d="M128.818426 59.9574046l5.38855 2.1687717c-.973121 5.6510756-3.26669 9.2614851-6.880708 10.8312283-2.565117-3.8136942-2.067731-8.1470275 1.492158-13z" id="path-5"/>
    <filter x="-70.7%" y="-46.2%" width="241.3%" height="192.3%" filterUnits="objectBoundingBox" id="filter-6">
      <feOffset in="SourceAlpha" result="shadowOffsetOuter1"/>
      <feGaussianBlur stdDeviation="2" in="shadowOffsetOuter1" result="shadowBlurOuter1"/>
      <feColorMatrix values="0 0 0 0 1 0 0 0 0 0.827445652 0 0 0 0 0 0 0 0 1 0" in="shadowBlurOuter1"/>
    </filter>
    <path d="M186.591689 61.2192069l5.38855 2.1687717c-.973121 5.6510756-3.26669 9.2614851-6.880708 10.8312283-2.565117-3.8136942-2.067731-8.1470275 1.492158-13z" id="path-7"/>
    <filter x="-70.7%" y="-46.2%" width="241.3%" height="192.3%" filterUnits="objectBoundingBox" id="filter-8">
      <feOffset in="SourceAlpha" result="shadowOffsetOuter1"/>
      <feGaussianBlur stdDeviation="2" in="shadowOffsetOuter1" result="shadowBlurOuter1"/>
      <feColorMatrix values="0 0 0 0 0.288655698 0 0 0 0 0.56455189 0 0 0 0 0.886238694 0 0 0 1 0" in="shadowBlurOuter1"/>
    </filter>
    <path d="M230.160337 55.246465l5.38855 2.1687717c-.973121 5.6510757-3.26669 9.2614851-6.880708 10.8312283-2.565117-3.8136941-2.067731-8.1470275 1.492158-13z" id="path-9"/>
    <filter x="-70.7%" y="-46.2%" width="241.3%" height="192.3%" filterUnits="objectBoundingBox" id="filter-10">
      <feOffset in="SourceAlpha" result="shadowOffsetOuter1"/>
      <feGaussianBlur stdDeviation="2" in="shadowOffsetOuter1" result="shadowBlurOuter1"/>
      <feColorMatrix values="0 0 0 0 1 0 0 0 0 0 0 0 0 0 0 0 0 0 1 0" in="shadowBlurOuter1"/>
    </filter>
    <path d="M280.548765 37.9689152l5.38855 2.1687717c-.973121 5.6510757-3.26669 9.2614851-6.880708 10.8312283-2.565117-3.8136942-2.067731-8.1470275 1.492158-13z" id="path-11"/>
    <filter x="-70.7%" y="-46.2%" width="241.3%" height="192.3%" filterUnits="objectBoundingBox" id="filter-12">
      <feOffset in="SourceAlpha" result="shadowOffsetOuter1"/>
      <feGaussianBlur stdDeviation="2" in="shadowOffsetOuter1" result="shadowBlurOuter1"/>
      <feColorMatrix values="0 0 0 0 0 0 0 0 0 1 0 0 0 0 0.0845788043 0 0 0 1 0" in="shadowBlurOuter1"/>
    </filter>
    <path d="M331.305755 12.1423439l5.388549 2.1687717c-.97312 5.6510756-3.26669 9.261485-6.880708 10.8312283-2.565117-3.8136942-2.06773-8.1470276 1.492159-13z" id="path-13"/>
    <filter x="-70.7%" y="-46.2%" width="241.3%" height="192.3%" filterUnits="objectBoundingBox" id="filter-14">
      <feOffset in="SourceAlpha" result="shadowOffsetOuter1"/>
      <feGaussianBlur stdDeviation="2" in="shadowOffsetOuter1" result="shadowBlurOuter1"/>
      <feColorMatrix values="0 0 0 0 1 0 0 0 0 0.827445652 0 0 0 0 0 0 0 0 1 0" in="shadowBlurOuter1"/>
    </filter>
    <path d="M362.759717 34.408225l5.38855 2.1687717c-.973121 5.6510756-3.26669 9.261485-6.880708 10.8312283-2.565117-3.8136942-2.067731-8.1470276 1.492158-13z" id="path-15"/>
    <filter x="-70.7%" y="-46.2%" width="241.3%" height="192.3%" filterUnits="objectBoundingBox" id="filter-16">
      <feOffset in="SourceAlpha" result="shadowOffsetOuter1"/>
      <feGaussianBlur stdDeviation="2" in="shadowOffsetOuter1" result="shadowBlurOuter1"/>
      <feColorMatrix values="0 0 0 0 0.288655698 0 0 0 0 0.56455189 0 0 0 0 0.886238694 0 0 0 1 0" in="shadowBlurOuter1"/>
    </filter>
    <path d="M404.864044 53.4690128l5.388549 2.1687717c-.97312 5.6510756-3.26669 9.2614851-6.880708 10.8312283-2.565116-3.8136942-2.06773-8.1470275 1.492159-13z" id="path-17"/>
    <filter x="-70.7%" y="-46.2%" width="241.3%" height="192.3%" filterUnits="objectBoundingBox" id="filter-18">
      <feOffset in="SourceAlpha" result="shadowOffsetOuter1"/>
      <feGaussianBlur stdDeviation="2" in="shadowOffsetOuter1" result="shadowBlurOuter1"/>
      <feColorMatrix values="0 0 0 0 1 0 0 0 0 0 0 0 0 0 0 0 0 0 1 0" in="shadowBlurOuter1"/>
    </filter>
    <path d="M448.7307 63.9185699l5.38855 2.1687717c-.97312 5.6510756-3.26669 9.2614851-6.880708 10.8312283-2.565117-3.8136942-2.067731-8.1470275 1.492158-13z" id="path-19"/>
    <filter x="-70.7%" y="-46.2%" width="241.3%" height="192.3%" filterUnits="objectBoundingBox" id="filter-20">
      <feOffset in="SourceAlpha" result="shadowOffsetOuter1"/>
      <feGaussianBlur stdDeviation="2" in="shadowOffsetOuter1" result="shadowBlurOuter1"/>
      <feColorMatrix values="0 0 0 0 0 0 0 0 0 1 0 0 0 0 0.0845788043 0 0 0 1 0" in="shadowBlurOuter1"/>
    </filter>
    <path d="M497.658098 66.2325572l5.388549 2.1687717c-.97312 5.6510756-3.26669 9.261485-6.880708 10.8312283-2.565117-3.8136942-2.06773-8.1470276 1.492159-13z" id="path-21"/>
    <filter x="-70.7%" y="-46.2%" width="241.3%" height="192.3%" filterUnits="objectBoundingBox" id="filter-22">
      <feOffset in="SourceAlpha" result="shadowOffsetOuter1"/>
      <feGaussianBlur stdDeviation="2" in="shadowOffsetOuter1" result="shadowBlurOuter1"/>
      <feColorMatrix values="0 0 0 0 1 0 0 0 0 0.827445652 0 0 0 0 0 0 0 0 1 0" in="shadowBlurOuter1"/>
    </filter>
    <path d="M548.456098 53.0986019l5.38855 2.1687717c-.973121 5.6510757-3.26669 9.2614851-6.880708 10.8312283-2.565117-3.8136941-2.067731-8.1470275 1.492158-13z" id="path-23"/>
    <filter x="-70.7%" y="-46.2%" width="241.3%" height="192.3%" filterUnits="objectBoundingBox" id="filter-24">
      <feOffset in="SourceAlpha" result="shadowOffsetOuter1"/>
      <feGaussianBlur stdDeviation="2" in="shadowOffsetOuter1" result="shadowBlurOuter1"/>
      <feColorMatrix values="0 0 0 0 0.288655698 0 0 0 0 0.56455189 0 0 0 0 0.886238694 0 0 0 1 0" in="shadowBlurOuter1"/>
    </filter>
    <path d="M585.609684 32.4271836l5.38855 2.1687717c-.97312 5.6510757-3.26669 9.2614851-6.880708 10.8312283-2.565117-3.8136942-2.067731-8.1470275 1.492158-13z" id="path-25"/>
    <filter x="-70.7%" y="-46.2%" width="241.3%" height="192.3%" filterUnits="objectBoundingBox" id="filter-26">
      <feOffset in="SourceAlpha" result="shadowOffsetOuter1"/>
      <feGaussianBlur stdDeviation="2" in="shadowOffsetOuter1" result="shadowBlurOuter1"/>
      <feColorMatrix values="0 0 0 0 1 0 0 0 0 0 0 0 0 0 0 0 0 0 1 0" in="shadowBlurOuter1"/>
    </filter>
    <path d="M624.327802 14.1442252l5.38855 2.1687717c-.973121 5.6510757-3.26669 9.2614851-6.880708 10.8312283-2.565117-3.8136942-2.067731-8.1470275 1.492158-13z" id="path-27"/>
    <filter x="-70.7%" y="-46.2%" width="241.3%" height="192.3%" filterUnits="objectBoundingBox" id="filter-28">
      <feOffset in="SourceAlpha" result="shadowOffsetOuter1"/>
      <feGaussianBlur stdDeviation="2" in="shadowOffsetOuter1" result="shadowBlurOuter1"/>
      <feColorMatrix values="0 0 0 0 0 0 0 0 0 1 0 0 0 0 0.0845788043 0 0 0 1 0" in="shadowBlurOuter1"/>
    </filter>
    <path d="M663.546616 39.2803555l5.38855 2.1687717c-.973121 5.6510756-3.26669 9.2614851-6.880708 10.8312283-2.565117-3.8136942-2.067731-8.1470275 1.492158-13z" id="path-29"/>
    <filter x="-70.7%" y="-46.2%" width="241.3%" height="192.3%" filterUnits="objectBoundingBox" id="filter-30">
      <feOffset in="SourceAlpha" result="shadowOffsetOuter1"/>
      <feGaussianBlur stdDeviation="2" in="shadowOffsetOuter1" result="shadowBlurOuter1"/>
      <feColorMatrix values="0 0 0 0 1 0 0 0 0 0.827445652 0 0 0 0 0 0 0 0 1 0" in="shadowBlurOuter1"/>
    </filter>
    <path d="M705.759717 57.408225l5.38855 2.1687717c-.973121 5.6510756-3.26669 9.261485-6.880708 10.8312283-2.565117-3.8136942-2.067731-8.1470276 1.492158-13z" id="path-31"/>
    <filter x="-70.7%" y="-46.2%" width="241.3%" height="192.3%" filterUnits="objectBoundingBox" id="filter-32">
      <feOffset in="SourceAlpha" result="shadowOffsetOuter1"/>
      <feGaussianBlur stdDeviation="2" in="shadowOffsetOuter1" result="shadowBlurOuter1"/>
      <feColorMatrix values="0 0 0 0 0.288655698 0 0 0 0 0.56455189 0 0 0 0 0.886238694 0 0 0 1 0" in="shadowBlurOuter1"/>
    </filter>
    <path d="M749.549909 69.8341337l5.388549 2.1687717c-.97312 5.6510756-3.266689 9.2614851-6.880707 10.8312283-2.565117-3.8136942-2.067731-8.1470275 1.492158-13z" id="path-33"/>
    <filter x="-70.7%" y="-46.2%" width="241.3%" height="192.3%" filterUnits="objectBoundingBox" id="filter-34">
      <feOffset in="SourceAlpha" result="shadowOffsetOuter1"/>
      <feGaussianBlur stdDeviation="2" in="shadowOffsetOuter1" result="shadowBlurOuter1"/>
      <feColorMatrix values="0 0 0 0 1 0 0 0 0 0 0 0 0 0 0 0 0 0 1 0" in="shadowBlurOuter1"/>
    </filter>
    <path d="M800.591689 72.2192069l5.38855 2.1687717c-.973121 5.6510756-3.26669 9.2614851-6.880708 10.8312283-2.565117-3.8136942-2.067731-8.1470275 1.492158-13z" id="path-35"/>
    <filter x="-70.7%" y="-46.2%" width="241.3%" height="192.3%" filterUnits="objectBoundingBox" id="filter-36">
      <feOffset in="SourceAlpha" result="shadowOffsetOuter1"/>
      <feGaussianBlur stdDeviation="2" in="shadowOffsetOuter1" result="shadowBlurOuter1"/>
      <feColorMatrix values="0 0 0 0 0 0 0 0 0 1 0 0 0 0 0.0845788043 0 0 0 1 0" in="shadowBlurOuter1"/>
    </filter>
    <path d="M847.427126 59.12526l5.388549 2.1687717c-.97312 5.6510757-3.26669 9.2614851-6.880708 10.8312283-2.565116-3.8136941-2.06773-8.1470275 1.492159-13z" id="path-37"/>
    <filter x="-70.7%" y="-46.2%" width="241.3%" height="192.3%" filterUnits="objectBoundingBox" id="filter-38">
      <feOffset in="SourceAlpha" result="shadowOffsetOuter1"/>
      <feGaussianBlur stdDeviation="2" in="shadowOffsetOuter1" result="shadowBlurOuter1"/>
      <feColorMatrix values="0 0 0 0 1 0 0 0 0 0.827445652 0 0 0 0 0 0 0 0 1 0" in="shadowBlurOuter1"/>
    </filter>
    <path d="M888.591689 32.2192069l5.38855 2.1687717c-.973121 5.6510756-3.26669 9.2614851-6.880708 10.8312283-2.565117-3.8136942-2.067731-8.1470275 1.492158-13z" id="path-39"/>
    <filter x="-70.7%" y="-46.2%" width="241.3%" height="192.3%" filterUnits="objectBoundingBox" id="filter-40">
      <feOffset in="SourceAlpha" result="shadowOffsetOuter1"/>
      <feGaussianBlur stdDeviation="2" in="shadowOffsetOuter1" result="shadowBlurOuter1"/>
      <feColorMatrix values="0 0 0 0 0.288655698 0 0 0 0 0.56455189 0 0 0 0 0.886238694 0 0 0 1 0" in="shadowBlurOuter1"/>
    </filter>
    <path d="M930.06809 16.5842021l5.38855 2.1687717c-.973121 5.6510757-3.26669 9.2614851-6.880708 10.8312283-2.565117-3.8136942-2.067731-8.1470275 1.492158-13z" id="path-41"/>
    <filter x="-70.7%" y="-46.2%" width="241.3%" height="192.3%" filterUnits="objectBoundingBox" id="filter-42">
      <feOffset in="SourceAlpha" result="shadowOffsetOuter1"/>
      <feGaussianBlur stdDeviation="2" in="shadowOffsetOuter1" result="shadowBlurOuter1"/>
      <feColorMatrix values="0 0 0 0 1 0 0 0 0 0 0 0 0 0 0 0 0 0 1 0" in="shadowBlurOuter1"/>
    </filter>
    <path d="M968.546616 41.2803555l5.38855 2.1687717c-.973121 5.6510756-3.26669 9.2614851-6.880708 10.8312283-2.565117-3.8136942-2.067731-8.1470275 1.492158-13z" id="path-43"/>
    <filter x="-70.7%" y="-46.2%" width="241.3%" height="192.3%" filterUnits="objectBoundingBox" id="filter-44">
      <feOffset in="SourceAlpha" result="shadowOffsetOuter1"/>
      <feGaussianBlur stdDeviation="2" in="shadowOffsetOuter1" result="shadowBlurOuter1"/>
      <feColorMatrix values="0 0 0 0 0 0 0 0 0 1 0 0 0 0 0.0845788043 0 0 0 1 0" in="shadowBlurOuter1"/>
    </filter>
    <path d="M1019.86404 61.4690128l5.38855 2.1687717c-.97312 5.6510756-3.26669 9.2614851-6.8807 10.8312283-2.56512-3.8136942-2.06774-8.1470275 1.49215-13z" id="path-45"/>
    <filter x="-70.7%" y="-46.2%" width="241.3%" height="192.3%" filterUnits="objectBoundingBox" id="filter-46">
      <feOffset in="SourceAlpha" result="shadowOffsetOuter1"/>
      <feGaussianBlur stdDeviation="2" in="shadowOffsetOuter1" result="shadowBlurOuter1"/>
      <feColorMatrix values="0 0 0 0 1 0 0 0 0 0.827445652 0 0 0 0 0 0 0 0 1 0" in="shadowBlurOuter1"/>
    </filter>
    <path d="M1067.7307 71.9185699l5.38855 2.1687717c-.97312 5.6510756-3.26669 9.2614851-6.88071 10.8312283-2.56511-3.8136942-2.06773-8.1470275 1.49216-13z" id="path-47"/>
    <filter x="-70.7%" y="-46.2%" width="241.3%" height="192.3%" filterUnits="objectBoundingBox" id="filter-48">
      <feOffset in="SourceAlpha" result="shadowOffsetOuter1"/>
      <feGaussianBlur stdDeviation="2" in="shadowOffsetOuter1" result="shadowBlurOuter1"/>
      <feColorMatrix values="0 0 0 0 0.288655698 0 0 0 0 0.56455189 0 0 0 0 0.886238694 0 0 0 1 0" in="shadowBlurOuter1"/>
    </filter>
    <path d="M1122.95868 73.263921l5.38855 2.1687717c-.97312 5.6510757-3.26669 9.2614851-6.8807 10.8312283-2.56512-3.8136941-2.06774-8.1470275 1.49215-13z" id="path-49"/>
    <filter x="-70.7%" y="-46.2%" width="241.3%" height="192.3%" filterUnits="objectBoundingBox" id="filter-50">
      <feOffset in="SourceAlpha" result="shadowOffsetOuter1"/>
      <feGaussianBlur stdDeviation="2" in="shadowOffsetOuter1" result="shadowBlurOuter1"/>
      <feColorMatrix values="0 0 0 0 1 0 0 0 0 0 0 0 0 0 0 0 0 0 1 0" in="shadowBlurOuter1"/>
    </filter>
    <path d="M1170.50709 64.0383507l5.38855 2.1687717c-.97312 5.6510757-3.26669 9.2614851-6.88071 10.8312283-2.56511-3.8136941-2.06773-8.1470275 1.49216-13z" id="path-51"/>
    <filter x="-70.7%" y="-46.2%" width="241.3%" height="192.3%" filterUnits="objectBoundingBox" id="filter-52">
      <feOffset in="SourceAlpha" result="shadowOffsetOuter1"/>
      <feGaussianBlur stdDeviation="2" in="shadowOffsetOuter1" result="shadowBlurOuter1"/>
      <feColorMatrix values="0 0 0 0 0 0 0 0 0 1 0 0 0 0 0.0845788043 0 0 0 1 0" in="shadowBlurOuter1"/>
    </filter>
    <path d="M1206.5767 44.2341929l5.38855 2.1687717c-.97312 5.6510756-3.26669 9.261485-6.8807 10.8312283-2.56512-3.8136942-2.06774-8.1470276 1.49215-13z" id="path-53"/>
    <filter x="-70.7%" y="-46.2%" width="241.3%" height="192.3%" filterUnits="objectBoundingBox" id="filter-54">
      <feOffset in="SourceAlpha" result="shadowOffsetOuter1"/>
      <feGaussianBlur stdDeviation="2" in="shadowOffsetOuter1" result="shadowBlurOuter1"/>
      <feColorMatrix values="0 0 0 0 1 0 0 0 0 0.827445652 0 0 0 0 0 0 0 0 1 0" in="shadowBlurOuter1"/>
    </filter>
    <path d="M1237.09826 12.0046856l5.38855 2.1687717c-.97312 5.6510757-3.26669 9.2614851-6.88071 10.8312283-2.56512-3.8136942-2.06773-8.1470275 1.49216-13z" id="path-55"/>
    <filter x="-70.7%" y="-46.2%" width="241.3%" height="192.3%" filterUnits="objectBoundingBox" id="filter-56">
      <feOffset in="SourceAlpha" result="shadowOffsetOuter1"/>
      <feGaussianBlur stdDeviation="2" in="shadowOffsetOuter1" result="shadowBlurOuter1"/>
      <feColorMatrix values="0 0 0 0 0.288655698 0 0 0 0 0.56455189 0 0 0 0 0.886238694 0 0 0 1 0" in="shadowBlurOuter1"/>
    </filter>
  </defs>
  <g id="Page-1" fill="none" fill-rule="evenodd">
    <g id="Lights">
      <path d="M.68359375.98001099C62.640625 85.9096985 273.882813 81.464386 324.703125.98001099c43.722656 59.83984371 216.097656 112.65234401 287.164063 0C666.164063 54.6401672 827.335937 132.395285 914 .98001099c75.660156 76.82691361 268.20313 119.14062501 328.28125 0" id="string" stroke="#979797"/>
      <g className="light" id="Path-2" transform="rotate(9 36.210594 39.084202)">
        <use fill="#000" filter="url(#filter-2)" xlink:href="#path-1"/>
        <use fill="red" xlink:href="#path-1"/>
      </g>
      <g className="light" id="Path-2-Copy" transform="rotate(-8 80.109349 57.027678)">
        <use fill="#000" filter="url(#filter-4)" xlink:href="#path-3"/>
        <use fill="#00FF16" xlink:href="#path-3"/>
      </g>
      <g className="light" id="Path-2-Copy-2" transform="rotate(-17 129.96093 66.457405)">
        <use fill="#000" filter="url(#filter-6)" xlink:href="#path-5"/>
        <use fill="#FFD300" xlink:href="#path-5"/>
      </g>
      <g className="light" id="Path-2-Copy-3" transform="rotate(-27 187.734193 67.719207)">
        <use fill="#000" filter="url(#filter-8)" xlink:href="#path-7"/>
        <use fill="#4A90E2" xlink:href="#path-7"/>
      </g>
      <g className="light" id="Path-2" transform="rotate(-37 231.302841 61.746465)">
        <use fill="#000" filter="url(#filter-10)" xlink:href="#path-9"/>
        <use fill="red" xlink:href="#path-9"/>
      </g>
      <g className="light" id="Path-2-Copy" transform="rotate(-49 281.691269 44.468915)">
        <use fill="#000" filter="url(#filter-12)" xlink:href="#path-11"/>
        <use fill="#00FF16" xlink:href="#path-11"/>
      </g>
      <g className="light" id="Path-2-Copy-2" transform="rotate(23 332.448258 18.642344)">
        <use fill="#000" filter="url(#filter-14)" xlink:href="#path-13"/>
        <use fill="#FFD300" xlink:href="#path-13"/>
      </g>
      <g className="light" id="Path-2-Copy-3" transform="rotate(6 363.902221 40.908225)">
        <use fill="#000" filter="url(#filter-16)" xlink:href="#path-15"/>
        <use fill="#4A90E2" xlink:href="#path-15"/>
      </g>
      <g className="light" id="Path-2" transform="rotate(-7 406.006547 59.969013)">
        <use fill="#000" filter="url(#filter-18)" xlink:href="#path-17"/>
        <use fill="red" xlink:href="#path-17"/>
      </g>
      <g className="light" id="Path-2-Copy" transform="rotate(-16 449.873204 70.41857)">
        <use fill="#000" filter="url(#filter-20)" xlink:href="#path-19"/>
        <use fill="#00FF16" xlink:href="#path-19"/>
      </g>
      <g className="light" id="Path-2-Copy-2" transform="rotate(-28 498.800601 72.732557)">
        <use fill="#000" filter="url(#filter-22)" xlink:href="#path-21"/>
        <use fill="#FFD300" xlink:href="#path-21"/>
      </g>
      <g className="light" id="Path-2-Copy-3" transform="rotate(-45 549.598602 59.598602)">
        <use fill="#000" filter="url(#filter-24)" xlink:href="#path-23"/>
        <use fill="#4A90E2" xlink:href="#path-23"/>
      </g>
      <g className="light" id="Path-2" transform="rotate(-60 586.752188 38.927184)">
        <use fill="#000" filter="url(#filter-26)" xlink:href="#path-25"/>
        <use fill="red" xlink:href="#path-25"/>
      </g>
      <g className="light" id="Path-2-Copy" transform="rotate(13 625.470306 20.644225)">
        <use fill="#000" filter="url(#filter-28)" xlink:href="#path-27"/>
        <use fill="#00FF16" xlink:href="#path-27"/>
      </g>
      <g className="light" id="Path-2-Copy-2" transform="rotate(4 664.68912 45.780356)">
        <use fill="#000" filter="url(#filter-30)" xlink:href="#path-29"/>
        <use fill="#FFD300" xlink:href="#path-29"/>
      </g>
      <g className="light" id="Path-2-Copy-3" transform="rotate(-6 706.902221 63.908225)">
        <use fill="#000" filter="url(#filter-32)" xlink:href="#path-31"/>
        <use fill="#4A90E2" xlink:href="#path-31"/>
      </g>
      <g className="light" id="Path-2" transform="rotate(-14 750.692413 76.334134)">
        <use fill="#000" filter="url(#filter-34)" xlink:href="#path-33"/>
        <use fill="red" xlink:href="#path-33"/>
      </g>
      <g className="light" id="Path-2-Copy" transform="rotate(-27 801.734193 78.719207)">
        <use fill="#000" filter="url(#filter-36)" xlink:href="#path-35"/>
        <use fill="#00FF16" xlink:href="#path-35"/>
      </g>
      <g className="light" id="Path-2-Copy-2" transform="rotate(-44 848.569629 65.62526)">
        <use fill="#000" filter="url(#filter-38)" xlink:href="#path-37"/>
        <use fill="#FFD300" xlink:href="#path-37"/>
      </g>
      <g className="light" id="Path-2-Copy-3" transform="rotate(-61 889.734193 38.719207)">
        <use fill="#000" filter="url(#filter-40)" xlink:href="#path-39"/>
        <use fill="#4A90E2" xlink:href="#path-39"/>
      </g>
      <g className="light" id="Path-2" transform="rotate(9 931.210594 23.084202)">
        <use fill="#000" filter="url(#filter-42)" xlink:href="#path-41"/>
        <use fill="red" xlink:href="#path-41"/>
      </g>
      <g className="light" id="Path-2-Copy" transform="rotate(4 969.68912 47.780356)">
        <use fill="#000" filter="url(#filter-44)" xlink:href="#path-43"/>
        <use fill="#00FF16" xlink:href="#path-43"/>
      </g>
      <g className="light" id="Path-2-Copy-2" transform="rotate(-7 1021.006547 67.969013)">
        <use fill="#000" filter="url(#filter-46)" xlink:href="#path-45"/>
        <use fill="#FFD300" xlink:href="#path-45"/>
      </g>
      <g className="light" id="Path-2-Copy-3" transform="rotate(-16 1068.873204 78.41857)">
        <use fill="#000" filter="url(#filter-48)" xlink:href="#path-47"/>
        <use fill="#4A90E2" xlink:href="#path-47"/>
      </g>
      <g className="light" id="Path-2" transform="rotate(-33 1124.101187 79.763921)">
        <use fill="#000" filter="url(#filter-50)" xlink:href="#path-49"/>
        <use fill="red" xlink:href="#path-49"/>
      </g>
      <g className="light" id="Path-2-Copy" transform="rotate(-47 1171.649595 70.538351)">
        <use fill="#000" filter="url(#filter-52)" xlink:href="#path-51"/>
        <use fill="#00FF16" xlink:href="#path-51"/>
      </g>
      <g className="light" id="Path-2-Copy-2" transform="rotate(-63 1207.719207 50.734193)">
        <use fill="#000" filter="url(#filter-54)" xlink:href="#path-53"/>
        <use fill="#FFD300" xlink:href="#path-53"/>
      </g>
      <g className="light" id="Path-2-Copy-3" transform="rotate(-78 1238.240762 18.504686)">
        <use fill="#000" filter="url(#filter-56)" xlink:href="#path-55"/>
        <use fill="#4A90E2" xlink:href="#path-55"/>
      </g>
    </g>
  </g>
</svg>