<svg width="345.08753662109376px" height="121.39999999999999px" xmlns="http://www.w3.org/2000/svg" viewBox="77.45623168945312 14.300000000000004 345.08753662109376 121.39999999999999" style="background: none;" preserveAspectRatio="xMidYMid"><defs><linearGradient id="editing-outline-gradient" x1="-0.5" x2="1.5" y1="0.5" y2="0.5"><stop offset="0" stop-color="#404040"></stop><stop offset="1" stop-color="#aeaeae"></stop></linearGradient><filter id="editing-outline" x="-100%" y="-100%" width="300%" height="300%"><feMorphology in="SourceGraphic" operator="dilate" radius="2" result="outline"></feMorphology><feComposite operator="out" in="outline" in2="SourceAlpha"></feComposite></filter></defs><g filter="url(#editing-outline)"><g transform="translate(131.50497770309448, 98.68000030517578)"><path d="M27.01-20.61L39.94-21.76L39.94-21.76Q35.33-11.65 35.33 0.06L35.33 0.06L35.33 0.06Q33.60 1.28 31.07 1.28L31.07 1.28L31.07 1.28Q28.54 1.28 26.94 0.10L26.94 0.10L26.94 0.10Q25.34-1.09 25.02-2.30L25.02-2.30L25.02-2.30Q23.42-0.64 20.83 0.32L20.83 0.32L20.83 0.32Q18.24 1.28 15.49 1.28L15.49 1.28L15.49 1.28Q12.74 1.28 10.34 0.38L10.34 0.38L10.34 0.38Q7.94-0.51 6.08-2.50L6.08-2.50L6.08-2.50Q1.98-6.85 1.98-15.10L1.98-15.10L1.98-15.10Q1.98-27.90 8.83-35.58L8.83-35.58L8.83-35.58Q15.87-43.52 28.35-43.52L28.35-43.52L28.35-43.52Q36.99-43.52 40.06-39.04L40.06-39.04L40.06-39.04Q41.02-37.63 41.02-35.94L41.02-35.94L41.02-35.94Q41.02-34.24 40.29-32.80L40.29-32.80L40.29-32.80Q39.55-31.36 38.40-30.21L38.40-30.21L38.40-30.21Q35.65-27.65 32.26-27.65L32.26-27.65L32.26-27.65Q30.91-27.65 29.63-28.10L29.63-28.10L29.63-28.10Q29.89-30.02 29.89-32.26L29.89-32.26L29.89-32.26Q29.89-34.50 29.73-35.52L29.73-35.52L29.73-35.52Q29.57-36.54 29.18-37.38L29.18-37.38L29.18-37.38Q28.35-39.10 26.53-39.10L26.53-39.10L26.53-39.10Q24.70-39.10 22.69-37.15L22.69-37.15L22.69-37.15Q20.67-35.20 19.07-32L19.07-32L19.07-32Q15.55-24.83 15.55-16.19L15.55-16.19L15.55-16.19Q15.55-12.22 17.09-9.41L17.09-9.41L17.09-9.41Q18.75-6.34 21.70-6.34L21.70-6.34L21.70-6.34Q22.72-6.34 23.65-6.85L23.65-6.85L23.65-6.85Q24.58-7.36 24.96-7.74L24.96-7.74L27.01-20.61ZM57.02 1.28L57.02 1.28L57.02 1.28Q42.94 1.28 42.94-11.97L42.94-11.97L42.94-11.97Q42.94-21.38 48.13-27.46L48.13-27.46L48.13-27.46Q53.63-33.92 63.17-33.92L63.17-33.92L63.17-33.92Q70.08-33.92 73.60-30.72L73.60-30.72L73.60-30.72Q77.12-27.52 77.12-20.80L77.12-20.80L77.12-20.80Q77.12-10.56 71.62-4.61L71.62-4.61L71.62-4.61Q66.24 1.28 57.02 1.28ZM58.69-26.56L58.69-26.56L58.69-26.56Q57.92-24.83 57.31-22.24L57.31-22.24L57.31-22.24Q56.70-19.65 55.94-15.55L55.94-15.55L55.94-15.55Q55.17-11.46 55.17-6.40L55.17-6.40L55.17-6.40Q55.17-4.74 55.71-3.65L55.71-3.65L55.71-3.65Q56.26-2.56 57.73-2.56L57.73-2.56L57.73-2.56Q59.20-2.56 60.13-3.26L60.13-3.26L60.13-3.26Q61.06-3.97 61.76-5.63L61.76-5.63L61.76-5.63Q63.04-8.58 64.06-14.05L64.06-14.05L64.06-14.05Q65.09-19.52 65.18-21.89L65.18-21.89L65.18-21.89Q65.28-24.26 65.28-26.02L65.28-26.02L65.28-26.02Q65.28-27.78 64.77-28.93L64.77-28.93L64.77-28.93Q64.26-30.08 62.82-30.08L62.82-30.08L62.82-30.08Q61.38-30.08 60.42-29.18L60.42-29.18L60.42-29.18Q59.46-28.29 58.69-26.56ZM97.41-30.34L97.41-30.34L97.41-30.34Q100.86-33.92 108.16-33.92L108.16-33.92L108.16-33.92Q112.19-33.92 114.40-31.78L114.40-31.78L114.40-31.78Q116.61-29.63 116.61-25.70L116.61-25.70L116.61-25.70Q116.61-21.76 114.40-18.98L114.40-18.98L114.40-18.98Q112.19-16.19 108.10-15.04L108.10-15.04L108.10-15.04Q108.42-13.76 108.86-12.42L108.86-12.42L109.76-9.86L109.76-9.86Q110.98-6.59 111.94-5.44L111.94-5.44L111.94-5.44Q112.90-4.29 114.18-3.90L114.18-3.90L114.18-3.90Q113.47-1.28 110.91 0.13L110.91 0.13L110.91 0.13Q108.86 1.28 106.05 1.28L106.05 1.28L106.05 1.28Q97.79 1.28 96.70-11.46L96.70-11.46L96.70-11.46Q96.51-13.25 96.51-15.04L96.51-15.04L96.51-15.04Q99.71-15.94 101.95-18.94L101.95-18.94L101.95-18.94Q104.19-21.95 104.19-25.47L104.19-25.47L104.19-25.47Q104.19-28.99 101.70-28.99L101.70-28.99L101.70-28.99Q99.90-28.99 98.50-27.01L98.50-27.01L98.50-27.01Q97.09-25.02 96.45-21.63L96.45-21.63L92.22 0L79.30 1.28L88.26-44.80L101.12-46.08L99.65-38.46L99.65-38.46Q98.69-33.09 97.41-30.34ZM151.74-7.10L151.74-7.10L151.74-7.10Q151.74-4.29 154.62-3.46L154.62-3.46L154.62-3.46Q153.92-1.09 151.17 0.19L151.17 0.19L151.17 0.19Q148.86 1.28 146.34 1.28L146.34 1.28L146.34 1.28Q143.81 1.28 142.50 0.61L142.50 0.61L142.50 0.61Q141.18-0.06 140.48-1.15L140.48-1.15L140.48-1.15Q139.33-2.82 139.33-5.95L139.33-5.95L139.33-5.95Q139.33-7.81 140.35-12.93L140.35-12.93L141.25-17.79L141.25-17.79Q142.34-23.36 142.34-25.41L142.34-25.41L142.34-25.41Q142.34-28.99 140.35-28.99L140.35-28.99L140.35-28.99Q137.86-28.99 136.26-25.34L136.26-25.34L136.26-25.34Q135.62-23.94 135.17-21.82L135.17-21.82L130.82 0L117.95 1.28L126.98-44.80L139.84-46.08L139.33-43.52L139.33-43.52Q137.54-33.66 136-30.34L136-30.34L136-30.34Q139.58-33.92 146.18-33.92L146.18-33.92L146.18-33.92Q153.15-33.92 154.43-29.31L154.43-29.31L154.43-29.31Q154.88-27.84 154.88-26.56L154.88-26.56L154.88-26.56Q154.88-25.28 154.78-24.29L154.78-24.29L154.78-24.29Q154.69-23.30 154.37-21.50L154.37-21.50L153.54-16.90L152.06-9.66L152.06-9.66Q151.74-8.19 151.74-7.10ZM162.59-1.92L162.59-1.92L162.59-1.92Q161.09-3.58 160.42-6.21L160.42-6.21L160.42-6.21Q159.74-8.83 159.74-13.12L159.74-13.12L159.74-13.12Q159.74-17.41 161.22-21.31L161.22-21.31L161.22-21.31Q162.69-25.22 165.38-28.03L165.38-28.03L165.38-28.03Q170.88-33.92 179.97-33.92L179.97-33.92L179.97-33.92Q183.23-33.92 185.60-32.83L185.60-32.83L196.54-33.92L191.81-8.96L191.81-8.96Q191.62-8.19 191.62-6.78L191.62-6.78L191.62-6.78Q191.62-5.38 192.48-4.48L192.48-4.48L192.48-4.48Q193.34-3.58 194.62-3.46L194.62-3.46L194.62-3.46Q193.98-1.28 191.65 0L191.65 0L191.65 0Q189.31 1.28 186.69 1.28L186.69 1.28L186.69 1.28Q184.06 1.28 182.30 0.29L182.30 0.29L182.30 0.29Q180.54-0.70 180.03-2.37L180.03-2.37L180.03-2.37Q179.01-0.77 176.83 0.26L176.83 0.26L176.83 0.26Q174.66 1.28 171.74 1.28L171.74 1.28L171.74 1.28Q168.83 1.28 166.46 0.51L166.46 0.51L166.46 0.51Q164.10-0.26 162.59-1.92ZM176.10-27.90L176.10-27.90L176.10-27.90Q175.36-26.75 174.72-24.80L174.72-24.80L174.72-24.80Q174.08-22.85 173.02-17.63L173.02-17.63L173.02-17.63Q171.97-12.42 171.97-8.70L171.97-8.70L171.97-8.70Q171.97-4.99 172.54-3.90L172.54-3.90L172.54-3.90Q173.12-2.82 174.14-2.82L174.14-2.82L174.14-2.82Q176.19-2.82 177.70-4.77L177.70-4.77L177.70-4.77Q179.20-6.72 179.78-10.18L179.78-10.18L183.17-28.93L183.17-28.93Q181.82-30.08 180.26-30.08L180.26-30.08L180.26-30.08Q178.69-30.08 177.76-29.57L177.76-29.57L177.76-29.57Q176.83-29.06 176.10-27.90ZM227.07 1.28L227.07 1.28L227.07 1.28Q219.33 1.28 219.33-4.74L219.33-4.74L219.33-4.74Q219.39-6.40 219.90-9.22L219.90-9.22L221.06-15.10L221.06-15.10Q222.78-23.42 222.78-25.28L222.78-25.28L222.78-25.28Q222.78-28.99 220.61-28.99L220.61-28.99L220.61-28.99Q216.96-28.99 215.04-19.46L215.04-19.46L211.26 0L198.40 1.28L205.06-32.70L215.55-33.92L214.53-27.65L214.53-27.65Q217.54-33.92 226.75-33.92L226.75-33.92L226.75-33.92Q231.23-33.92 233.12-32.03L233.12-32.03L233.12-32.03Q235.01-30.14 235.01-25.92L235.01-25.92L235.01-25.92Q235.01-21.95 232.96-12.67L232.96-12.67L232.96-12.67Q232-8.51 232-6.94L232-6.94L232-6.94Q232-5.38 232.86-4.48L232.86-4.48L232.86-4.48Q233.73-3.58 235.01-3.46L235.01-3.46L235.01-3.46Q234.37-1.28 232.16 0L232.16 0L232.16 0Q229.95 1.28 227.07 1.28Z" fill="url(#editing-outline-gradient)"></path></g></g><style>text {
  font-size: 64px;
  font-family: Arial Black;
  dominant-baseline: central;
  text-anchor: middle;
}</style></svg>