<?xml version="1.0" encoding="iso-8859-1"?>
<!-- Generator: Adobe Illustrator 16.0.0, SVG Export Plug-In . SVG Version: 6.00 Build 0)  -->
<!DOCTYPE svg PUBLIC "-//W3C//DTD SVG 1.1//EN" "http://www.w3.org/Graphics/SVG/1.1/DTD/svg11.dtd">
<svg version="1.1" id="Capa_1" xmlns="http://www.w3.org/2000/svg" xmlns:xlink="http://www.w3.org/1999/xlink" x="0px" y="0px"
	 width="403.814px" height="403.814px" viewBox="0 0 403.814 403.814" style="enable-background:new 0 0 403.814 403.814;"
	 xml:space="preserve">
<g>
	<g id="Layer_2_19_">
		<path d="M358.148,29.264c-16.615,0-31.182,8.922-39.172,22.225c-23.242-8.693-56.521-17.941-92.92-17.941
			c-47.35,0-87.11,15.645-118.177,46.5c-37.852,37.595-61.933,97.59-71.645,178.396h-0.448C16.054,258.443,0,274.498,0,294.229
			v44.535c0,19.733,16.054,35.786,35.787,35.786H316.85c19.734,0,35.787-16.053,35.787-35.786v-44.535
			c0-19.731-16.055-35.786-35.787-35.786h-8.094c-25.779-49.346-34.035-90.45-24.529-122.235
			c6.309-21.098,19.645-34.67,32.025-43.135c7.031,16.178,23.16,27.523,41.895,27.523c25.182,0,45.668-20.486,45.668-45.667
			C403.816,49.75,383.33,29.264,358.148,29.264z M316.85,278.445c8.705,0,15.787,7.082,15.787,15.785v44.535
			c0,8.705-7.082,15.787-15.787,15.787H35.788c-8.705,0-15.787-7.082-15.787-15.787V294.23c0-8.705,7.082-15.785,15.787-15.785
			H316.85z M310.627,72.931c-16.738,10.033-36.641,27.719-45.562,57.548c-10.412,34.813-3.252,77.805,21.279,127.967H56.378
			c9.323-75.006,31.368-130.21,65.596-164.207c27.185-27,62.204-40.691,104.083-40.691c34.066,0,65.717,9.25,84.879,16.295
			L310.627,72.931z M358.148,100.597c-14.152,0-25.666-11.514-25.666-25.667c0-14.152,11.514-25.666,25.666-25.666
			c14.154,0,25.668,11.514,25.668,25.666C383.816,89.083,372.303,100.597,358.148,100.597z"/>
	</g>
</g>
<g>
</g>
<g>
</g>
<g>
</g>
<g>
</g>
<g>
</g>
<g>
</g>
<g>
</g>
<g>
</g>
<g>
</g>
<g>
</g>
<g>
</g>
<g>
</g>
<g>
</g>
<g>
</g>
<g>
</g>
</svg>
